<svg width="553" height="251" fill="none" xmlns="http://www.w3.org/2000/svg"><circle cx="548.7" cy="4.215" r="4.126" transform="rotate(90 548.7 4.215)" fill="#29AAF3"/><circle cx="548.7" cy="64.723" r="4.126" transform="rotate(90 548.7 64.723)" fill="#29AAF3"/><circle cx="548.7" cy="125.231" r="4.126" transform="rotate(90 548.7 125.231)" fill="#29AAF3"/><circle cx="548.7" cy="185.739" r="4.126" transform="rotate(90 548.7 185.739)" fill="#29AAF3"/><circle cx="548.7" cy="246.247" r="4.126" transform="rotate(90 548.7 246.247)" fill="#29AAF3"/><circle cx="488.192" cy="4.214" r="4.126" transform="rotate(90 488.192 4.214)" fill="#29AAF3"/><circle cx="488.192" cy="64.723" r="4.126" transform="rotate(90 488.192 64.723)" fill="#29AAF3"/><circle cx="488.192" cy="125.231" r="4.126" transform="rotate(90 488.192 125.231)" fill="#29AAF3"/><circle cx="488.192" cy="185.739" r="4.126" transform="rotate(90 488.192 185.739)" fill="#29AAF3"/><circle cx="488.192" cy="246.247" r="4.126" transform="rotate(90 488.192 246.247)" fill="#29AAF3"/><circle cx="427.683" cy="4.214" r="4.126" transform="rotate(90 427.683 4.214)" fill="#29AAF3"/><circle cx="427.683" cy="64.723" r="4.126" transform="rotate(90 427.683 64.723)" fill="#29AAF3"/><circle cx="427.683" cy="125.231" r="4.126" transform="rotate(90 427.683 125.231)" fill="#29AAF3"/><circle cx="427.683" cy="185.739" r="4.126" transform="rotate(90 427.683 185.739)" fill="#29AAF3"/><circle cx="427.683" cy="246.247" r="4.126" transform="rotate(90 427.683 246.247)" fill="#29AAF3"/><circle cx="367.175" cy="4.214" r="4.126" transform="rotate(90 367.175 4.214)" fill="#29AAF3"/><circle cx="367.175" cy="64.723" r="4.126" transform="rotate(90 367.175 64.723)" fill="#29AAF3"/><circle cx="367.175" cy="125.231" r="4.126" transform="rotate(90 367.175 125.231)" fill="#29AAF3"/><circle cx="367.175" cy="185.739" r="4.126" transform="rotate(90 367.175 185.739)" fill="#29AAF3"/><circle cx="367.175" cy="246.247" r="4.126" transform="rotate(90 367.175 246.247)" fill="#29AAF3"/><circle cx="306.666" cy="4.214" r="4.126" transform="rotate(90 306.666 4.214)" fill="#29AAF3"/><circle cx="306.667" cy="64.723" r="4.126" transform="rotate(90 306.667 64.723)" fill="#29AAF3"/><circle cx="306.667" cy="125.231" r="4.126" transform="rotate(90 306.667 125.231)" fill="#29AAF3"/><circle cx="306.667" cy="185.739" r="4.126" transform="rotate(90 306.667 185.739)" fill="#29AAF3"/><circle cx="306.667" cy="246.247" r="4.126" transform="rotate(90 306.667 246.247)" fill="#29AAF3"/><circle cx="246.159" cy="4.214" r="4.126" transform="rotate(90 246.159 4.214)" fill="#29AAF3"/><circle cx="246.159" cy="64.723" r="4.126" transform="rotate(90 246.159 64.723)" fill="#29AAF3"/><circle cx="246.159" cy="125.231" r="4.126" transform="rotate(90 246.159 125.231)" fill="#29AAF3"/><circle cx="246.159" cy="185.739" r="4.126" transform="rotate(90 246.159 185.739)" fill="#29AAF3"/><circle cx="246.159" cy="246.247" r="4.126" transform="rotate(90 246.159 246.247)" fill="#29AAF3"/><circle cx="185.65" cy="4.214" r="4.126" transform="rotate(90 185.65 4.214)" fill="#29AAF3"/><circle cx="185.65" cy="64.723" r="4.126" transform="rotate(90 185.65 64.723)" fill="#29AAF3"/><circle cx="185.65" cy="125.231" r="4.126" transform="rotate(90 185.65 125.231)" fill="#29AAF3"/><circle cx="185.65" cy="185.739" r="4.126" transform="rotate(90 185.65 185.739)" fill="#29AAF3"/><circle cx="185.65" cy="246.247" r="4.126" transform="rotate(90 185.65 246.247)" fill="#29AAF3"/><circle cx="125.142" cy="4.214" r="4.126" transform="rotate(90 125.142 4.214)" fill="#29AAF3"/><circle cx="125.142" cy="64.723" r="4.126" transform="rotate(90 125.142 64.723)" fill="#29AAF3"/><circle cx="125.142" cy="125.231" r="4.126" transform="rotate(90 125.142 125.231)" fill="#29AAF3"/><circle cx="125.142" cy="185.739" r="4.126" transform="rotate(90 125.142 185.739)" fill="#29AAF3"/><circle cx="125.142" cy="246.247" r="4.126" transform="rotate(90 125.142 246.247)" fill="#29AAF3"/><circle cx="64.634" cy="4.214" r="4.126" transform="rotate(90 64.634 4.214)" fill="#29AAF3"/><circle cx="64.634" cy="64.723" r="4.126" transform="rotate(90 64.634 64.723)" fill="#29AAF3"/><circle cx="64.634" cy="125.231" r="4.126" transform="rotate(90 64.634 125.231)" fill="#29AAF3"/><circle cx="64.634" cy="185.739" r="4.126" transform="rotate(90 64.634 185.739)" fill="#29AAF3"/><circle cx="64.634" cy="246.247" r="4.126" transform="rotate(90 64.634 246.247)" fill="#29AAF3"/><circle cx="4.125" cy="4.214" r="4.126" transform="rotate(90 4.125 4.214)" fill="#29AAF3"/><circle cx="4.125" cy="64.723" r="4.126" transform="rotate(90 4.125 64.723)" fill="#29AAF3"/><circle cx="4.125" cy="125.231" r="4.126" transform="rotate(90 4.125 125.231)" fill="#29AAF3"/><circle cx="4.125" cy="185.739" r="4.126" transform="rotate(90 4.125 185.739)" fill="#29AAF3"/><circle cx="4.125" cy="246.247" r="4.126" transform="rotate(90 4.125 246.247)" fill="#29AAF3"/></svg>