<svg width="963" height="1087" fill="none" xmlns="http://www.w3.org/2000/svg"><path opacity=".6" d="M28.856-452.987c23.994-32.648 59.984-49.832 107.972-53.268 87.405-6.874 137.106 34.366 149.103 123.719C339.06-23.406 397.33 280.738 459.028 529.895l375.329-716.542c34.277-65.296 77.123-99.663 128.538-103.099 75.405-5.155 121.685 42.958 140.535 144.339 42.84 228.537 97.69 422.708 162.81 587.667 44.56-436.454 119.97-750.908 226.23-945.079 25.71-48.113 63.41-72.169 113.11-75.606 39.42-3.436 75.41 8.592 107.97 34.367 32.57 25.775 49.7 58.422 53.13 97.944 1.72 30.93-3.43 56.705-17.14 82.48-66.84 123.719-121.68 331.637-166.24 620.315-42.84 280.087-58.27 498.314-47.99 654.682 3.43 42.958-3.42 80.761-20.56 113.407-20.57 37.81-51.42 58.43-90.83 61.86-44.56 3.44-90.84-17.18-135.4-63.58-159.38-163.237-286.21-407.239-378.754-732.002-111.399 219.946-193.663 384.905-246.792 494.877-101.116 194.171-186.808 293.835-258.788 298.985-46.274 3.44-85.692-36.08-119.969-118.56C196.812 741.249 102.551 306.513 1.435-337.859c-5.142-44.677 3.427-84.198 27.421-115.128z" fill="#fff"/></svg>